<svg xmlns="http://www.w3.org/2000/svg" viewBox="0 0 31.99 31.99"><defs><style>.cls-1{fill:#fff;}</style></defs><title>Asset 2</title><g id="Layer_2" data-name="Layer 2"><g id="footer"><path class="cls-1" d="M22.11,32H9.88A9.89,9.89,0,0,1,0,22.11V9.88A9.89,9.89,0,0,1,9.88,0H22.11A9.89,9.89,0,0,1,32,9.88V22.11A9.89,9.89,0,0,1,22.11,32ZM9.88,3.57A6.32,6.32,0,0,0,3.57,9.88V22.11a6.32,6.32,0,0,0,6.31,6.32H22.11a6.33,6.33,0,0,0,6.32-6.32V9.88a6.32,6.32,0,0,0-6.32-6.31Z"/><path class="cls-1" d="M16,24.17A8.18,8.18,0,1,1,24.17,16,8.19,8.19,0,0,1,16,24.17ZM16,11a5,5,0,1,0,5,5A5,5,0,0,0,16,11Z"/><path class="cls-1" d="M26,7.34A1.39,1.39,0,1,1,24.59,6,1.38,1.38,0,0,1,26,7.34Z"/></g></g></svg>