<svg xmlns="http://www.w3.org/2000/svg" viewBox="0 0 43.39 43.39"><defs><style>.cls-1{fill:#fff;}.cls-2{fill:#77bffa;}.cls-3{fill:#202e4c;}</style></defs><title>Asset 4</title><g id="Layer_2" data-name="Layer 2"><g id="header"><circle class="cls-1" cx="21.69" cy="21.69" r="21.69"/><path class="cls-2" d="M13.66,34.16H29.8S31.26,20.6,21.69,20.6C12.89,20.6,13.66,34.16,13.66,34.16Z"/><circle class="cls-2" cx="21.69" cy="14.98" r="5.62"/><path class="cls-3" d="M21.69,21.27A6.29,6.29,0,1,1,28,15,6.29,6.29,0,0,1,21.69,21.27Zm0-11.35A5.06,5.06,0,1,0,26.75,15,5.06,5.06,0,0,0,21.69,9.92Z"/><path class="cls-3" d="M30.43,34.7H13l0-.58c0-.31-.47-7.7,3.18-11.6a7.35,7.35,0,0,1,5.59-2.32,7.36,7.36,0,0,1,5.6,2.32c3.65,3.9,3.2,11.29,3.18,11.6Zm-16.3-1.23H29.26c0-1.77-.13-7.19-2.87-10.11a6.17,6.17,0,0,0-4.7-1.93A6.17,6.17,0,0,0,17,23.36C14.26,26.29,14.1,31.7,14.13,33.47Z"/></g></g></svg>