<svg xmlns="http://www.w3.org/2000/svg" viewBox="0 0 140.37 24"><defs><style>.cls-1{fill:#fff;}</style></defs><title>Asset 6</title><g id="Layer_2" data-name="Layer 2"><g id="MENU"><polygon id="_Path_" data-name="&lt;Path&gt;" class="cls-1" points="22.08 23.77 14.59 23.77 7.52 14.3 6.1 16.05 6.1 23.77 0 23.77 0 0.12 6.1 0.12 6.1 10.83 14.55 0.12 21.62 0.12 12.38 11.06 22.08 23.77"/><path id="_Compound_Path_" data-name="&lt;Compound Path&gt;" class="cls-1" d="M47.13,23.77H39.68L33.25,15.1H30.42v8.67H24.35V.11H34.58a23.32,23.32,0,0,1,3.61.24,7.62,7.62,0,0,1,2.83,1,6.22,6.22,0,0,1,2.12,2.05,5.93,5.93,0,0,1,.78,3.17,7.08,7.08,0,0,1-1.21,4.27,9.11,9.11,0,0,1-3.47,2.75ZM37.62,7.36a3.07,3.07,0,0,0-.37-1.53,2.48,2.48,0,0,0-1.25-1,4.15,4.15,0,0,0-1.39-.25c-.55,0-1.19-.06-1.93-.06H30l0,6h4a6.82,6.82,0,0,0,1.8-.16A2.8,2.8,0,0,0,37.32,9a3.59,3.59,0,0,0,.3-1.6"/><path id="_Compound_Path_2" data-name="&lt;Compound Path&gt;" class="cls-1" d="M73.12,23.77H66.81L65.16,19H56.41l-1.64,4.78H48.62L57.35.11h7ZM63.7,15,60.79,6.17,57.88,15Z"/><polygon id="_Path_2" data-name="&lt;Path&gt;" class="cls-1" points="97.38 23.77 91.24 23.77 80.53 7.53 80.53 23.77 74.91 23.77 74.91 0.12 82.53 0.12 91.76 13.66 91.76 0.12 97.38 0.12 97.38 23.77"/><polygon id="_Path_3" data-name="&lt;Path&gt;" class="cls-1" points="118.1 23.77 101 23.77 101 0.12 118.1 0.12 118.1 4.69 106.74 4.69 106.74 8.98 116.1 8.98 116.1 13.56 106.74 13.56 106.74 19.46 118.1 19.46 118.1 23.77"/><path id="_Path_4" data-name="&lt;Path&gt;" class="cls-1" d="M132,24a15.21,15.21,0,0,1-4.87-.75A10.64,10.64,0,0,1,123.29,21a10,10,0,0,1-2.48-3.75,14.19,14.19,0,0,1-.88-5.21,14.14,14.14,0,0,1,.84-5,10.83,10.83,0,0,1,2.44-3.83A10.49,10.49,0,0,1,127,.84,14.32,14.32,0,0,1,132,0a20,20,0,0,1,2.69.16,20.85,20.85,0,0,1,2.22.43,15.34,15.34,0,0,1,1.92.66c.58.24,1.09.47,1.52.68v5.6h-.7c-.29-.25-.67-.54-1.12-.88a13.53,13.53,0,0,0-1.53-1,10.4,10.4,0,0,0-1.89-.83A6.73,6.73,0,0,0,133,4.47a7.61,7.61,0,0,0-2.44.39,6.05,6.05,0,0,0-2.15,1.31,6.55,6.55,0,0,0-1.52,2.34,9.7,9.7,0,0,0-.58,3.53,9.11,9.11,0,0,0,.63,3.62,6.37,6.37,0,0,0,1.58,2.3,5.8,5.8,0,0,0,2.16,1.21,7.84,7.84,0,0,0,2.36.37,7.57,7.57,0,0,0,2.2-.33,9.07,9.07,0,0,0,2-.88,13.28,13.28,0,0,0,1.44-.95c.45-.34.81-.64,1.09-.88h.64V22l-1.7.73a14.78,14.78,0,0,1-1.7.59,19.33,19.33,0,0,1-2.17.49A17.2,17.2,0,0,1,132,24"/></g></g></svg>