<svg xmlns="http://www.w3.org/2000/svg" viewBox="0 0 37.13 27.54"><defs><style>.cls-1{fill:#fff;stroke:#fff;stroke-miterlimit:10;stroke-width:0.75px;}</style></defs><title>Asset 5</title><g id="Layer_2" data-name="Layer 2"><g id="footer"><path class="cls-1" d="M35.12.38H2.69A2.3,2.3,0,0,0,.38,2.69V24.85a2.32,2.32,0,0,0,2.31,2.31H34.44a2.33,2.33,0,0,0,2.32-2.31V2A1.64,1.64,0,0,0,35.12.38Zm-33.48,3,9.64,10.31L1.64,24ZM34.44,25.9H2.69a1,1,0,0,1-.79-.36l10.24-11,4.73,5.07a2.33,2.33,0,0,0,3.39,0L25,14.58l5.28,5.65a.6.6,0,0,0,.13.09l4.83,5.21A1.06,1.06,0,0,1,34.44,25.9ZM35.49,7.28V24L29.7,17.71a.67.67,0,0,0-.16-.12l-3.68-3.93L35.49,3.35ZM19.34,18.78a1.05,1.05,0,0,1-.77.34,1,1,0,0,1-.77-.34L2,1.89a1,1,0,0,1,.68-.25H29.33c4,0,4.51-.07,6.16-.07Z"/></g></g></svg>