<svg xmlns="http://www.w3.org/2000/svg" viewBox="0 0 33.58 33.58"><defs><style>.cls-1{fill:#fff;}</style></defs><title>Asset 1</title><g id="Layer_2" data-name="Layer 2"><g id="footer"><path class="cls-1" d="M16.79,33.58a16.65,16.65,0,0,1-9.5-2.95L.49,33.3l2.39-7.11a16.78,16.78,0,1,1,13.91,7.39ZM8.24,28l.31.22a13.93,13.93,0,0,0,8.24,2.67A14.08,14.08,0,1,0,5.32,24.93l.2.29L4,29.62Z"/><path class="cls-1" d="M25.49,20.68a.64.64,0,0,1,.17.54c-.18,1.14-1.18,5.33-6.22,3.55-5.8-2.06-10-5.67-11.34-10.48s2.53-6.09,3.34-5.8,2.84,3.85,2.55,4.63-1.64,1.52-1.6,2.35,5.18,5.81,6.64,5.4c1-.28,1.1-1.83,2.09-2S24.62,19.76,25.49,20.68Z"/></g></g></svg>